<?xml version="1.0" encoding="utf-8"?>
<!-- Generator: Adobe Illustrator 26.2.1, SVG Export Plug-In . SVG Version: 6.00 Build 0)  -->
<svg version="1.1" id="Capa_1" xmlns="http://www.w3.org/2000/svg" xmlns:xlink="http://www.w3.org/1999/xlink" x="0px" y="0px"
	 viewBox="0 0 512 408" style="enable-background:new 0 0 512 408;" xml:space="preserve">
<style type="text/css">
	.st0{fill:#007BBF;}
	.st1{fill:#EA5D5E;}
	.st2{fill:#FFFFFF;}
</style>
<g>
	<g id="YHlucE_00000052811355239706515850000000436206580171021475_">
		<g>
			<path d="M25.8,285c0.5-32.3,13-58.3,37.6-77.5c17.2-13.4,35.8-24.9,54.1-36.8C186.2,126,255.1,81.6,323.7,36.9
				c17.8-11.6,36.9-18.4,58.2-18.4c50.9-0.1,92.5,34.1,102.4,83.9c7.3,36.5-6.1,81.4-48.1,108.2c-44.7,28.5-89,57.5-133.3,86.4
				c-36.7,23.9-73.3,48-110.1,71.8c-16.1,10.4-33.2,18.7-52.6,20.3c-41,3.4-73.6-11.7-97.2-45.3C30.5,326,26.3,305.5,25.8,285z
				 M471.7,129c-0.1-21.4-4.1-38.6-11-51C436,33.1,378.8,18.8,335,46.9c-40.5,25.9-80.8,52.3-121.2,78.5c-6.6,4.3-7.3,6.1-5.1,13.7
				c6.4,22.2,15.6,43.2,27.1,63.2c15.9,27.5,36.2,50.9,63.1,68.3c6.3,4.1,11.6,4.4,17.9,0.1c10-6.9,20.4-13.2,30.6-19.9
				c28.8-18.7,57.9-36.9,86.2-56.3C457.8,178,471.3,154.7,471.7,129z M294.1,285.2c-2.3-1.6-3.7-2.7-5.2-3.7
				c-16.9-11.3-31.7-24.8-44.5-40.6c-22.6-28-37.8-59.8-48.7-93.9c-2.2-6.8-3.6-7.3-9.5-3.5c-35.6,23.2-71.4,46.1-106.6,69.8
				c-31.1,21-43.3,51.1-37.9,87.9c7.1,47.5,52.5,80.3,100,73.2c18-2.7,33.3-11.3,48.1-21c30.8-20.1,61.6-40.3,92.4-60.4
				C285.9,290.5,289.5,288.2,294.1,285.2z"/>
			<path class="st0" d="M471.7,129c-0.4,25.7-13.8,49.1-38,65.7c-28.3,19.4-57.4,37.6-86.2,56.3c-10.2,6.6-20.6,13-30.6,19.9
				c-6.2,4.3-11.6,4-17.9-0.1c-26.9-17.4-47.3-40.8-63.1-68.3c-11.5-20-20.7-41-27.1-63.2c-2.2-7.6-1.5-9.4,5.1-13.7
				c40.4-26.2,80.6-52.6,121.2-78.5C378.8,18.8,436,33.1,460.7,78C467.5,90.4,471.6,107.6,471.7,129z"/>
			<path class="st1" d="M294.1,285.2c-4.6,3-8.2,5.3-11.8,7.7c-30.8,20.1-61.6,40.3-92.4,60.4c-14.9,9.7-30.1,18.3-48.1,21
				c-47.5,7.1-92.9-25.7-100-73.2c-5.5-36.8,6.8-66.9,37.9-87.9c35.2-23.8,71-46.6,106.6-69.8c5.9-3.8,7.3-3.3,9.5,3.5
				c10.9,34.1,26.2,65.9,48.7,93.9c12.7,15.8,27.5,29.4,44.5,40.6C290.4,282.5,291.8,283.6,294.1,285.2z"/>
		</g>
	</g>
	<g id="YHlucE_00000089554396662583550920000003586172633868620991_">
		<g>
			<path class="st2" d="M465.1,120.4c-1.1,20.6-6,39.1-21.9,53.2c-3.9,3.4-8.2,6-13.6,3.6c-7.6-3.5-8.9-12-2.3-18
				c7.5-6.9,13.2-15,14.1-25.1c0.9-9.5-0.1-19.2-0.4-28.7c-0.1-2.8-1-5.6-1.1-8.4c-0.1-6.1,2.9-9.5,9-10.6
				c5.4-0.9,10.1,1.4,11.4,7.2C462.4,102.4,463.5,111.4,465.1,120.4z"/>
			<path class="st2" d="M411.3,173.9c6.5,0,11.3,4.7,11.4,11.2c0,6.1-5.2,10.9-11.7,10.9c-6.3,0-10.8-4.6-10.9-11.1
				C399.9,178.4,404.5,173.8,411.3,173.9z"/>
		</g>
	</g>
</g>
</svg>
